<mxfile host="app.diagrams.net" modified="2022-09-07T16:45:25.068Z" agent="5.0 (Windows NT 10.0; Win64; x64) AppleWebKit/537.36 (KHTML, like Gecko) Chrome/105.0.0.0 Safari/537.36" etag="uSWlZWef9jyXa8XbvR4d" version="20.3.0" type="github">
  <diagram id="C5RBs43oDa-KdzZeNtuy" name="Page-1">
    <mxGraphModel dx="1695" dy="1651" grid="1" gridSize="10" guides="1" tooltips="1" connect="1" arrows="1" fold="1" page="1" pageScale="1" pageWidth="827" pageHeight="1169" math="0" shadow="0">
      <root>
        <mxCell id="WIyWlLk6GJQsqaUBKTNV-0" />
        <mxCell id="WIyWlLk6GJQsqaUBKTNV-1" parent="WIyWlLk6GJQsqaUBKTNV-0" />
        <mxCell id="WJT5H3Xv6onpYGz3A-zf-60" style="edgeStyle=orthogonalEdgeStyle;rounded=0;orthogonalLoop=1;jettySize=auto;html=1;entryX=1;entryY=0.5;entryDx=0;entryDy=0;exitX=0.5;exitY=1;exitDx=0;exitDy=0;" parent="WIyWlLk6GJQsqaUBKTNV-1" source="WJT5H3Xv6onpYGz3A-zf-52" target="WJT5H3Xv6onpYGz3A-zf-54" edge="1">
          <mxGeometry relative="1" as="geometry">
            <mxPoint x="447" y="2230" as="targetPoint" />
            <mxPoint x="447" y="2100" as="sourcePoint" />
            <Array as="points">
              <mxPoint x="447" y="2220" />
            </Array>
          </mxGeometry>
        </mxCell>
        <mxCell id="WIyWlLk6GJQsqaUBKTNV-2" value="" style="rounded=0;html=1;jettySize=auto;orthogonalLoop=1;fontSize=11;endArrow=block;endFill=0;endSize=8;strokeWidth=1;shadow=0;labelBackgroundColor=none;edgeStyle=orthogonalEdgeStyle;" parent="WIyWlLk6GJQsqaUBKTNV-1" source="WIyWlLk6GJQsqaUBKTNV-3" edge="1">
          <mxGeometry relative="1" as="geometry">
            <mxPoint x="240" y="120" as="targetPoint" />
          </mxGeometry>
        </mxCell>
        <mxCell id="WIyWlLk6GJQsqaUBKTNV-3" value="Buscar un bowl" style="rounded=1;whiteSpace=wrap;html=1;fontSize=12;glass=0;strokeWidth=1;shadow=0;fillColor=#ffe6cc;strokeColor=#d79b00;" parent="WIyWlLk6GJQsqaUBKTNV-1" vertex="1">
          <mxGeometry x="180" y="40" width="120" height="40" as="geometry" />
        </mxCell>
        <mxCell id="WIyWlLk6GJQsqaUBKTNV-4" value="Si" style="rounded=0;html=1;jettySize=auto;orthogonalLoop=1;fontSize=11;endArrow=block;endFill=0;endSize=8;strokeWidth=1;shadow=0;labelBackgroundColor=none;edgeStyle=orthogonalEdgeStyle;entryX=0.5;entryY=0;entryDx=0;entryDy=0;" parent="WIyWlLk6GJQsqaUBKTNV-1" source="WIyWlLk6GJQsqaUBKTNV-6" target="WJT5H3Xv6onpYGz3A-zf-22" edge="1">
          <mxGeometry y="20" relative="1" as="geometry">
            <mxPoint as="offset" />
            <mxPoint x="240" y="250" as="targetPoint" />
            <Array as="points" />
          </mxGeometry>
        </mxCell>
        <mxCell id="WJT5H3Xv6onpYGz3A-zf-28" value="No" style="edgeStyle=orthogonalEdgeStyle;rounded=0;orthogonalLoop=1;jettySize=auto;html=1;" parent="WIyWlLk6GJQsqaUBKTNV-1" source="WIyWlLk6GJQsqaUBKTNV-6" edge="1">
          <mxGeometry relative="1" as="geometry">
            <mxPoint x="350" y="270" as="targetPoint" />
            <Array as="points">
              <mxPoint x="350" y="270" />
            </Array>
          </mxGeometry>
        </mxCell>
        <mxCell id="WIyWlLk6GJQsqaUBKTNV-6" value="Tengo huevo?" style="rhombus;whiteSpace=wrap;html=1;shadow=0;fontFamily=Helvetica;fontSize=12;align=center;strokeWidth=1;spacing=6;spacingTop=-4;fillColor=#ffe6cc;strokeColor=#d79b00;" parent="WIyWlLk6GJQsqaUBKTNV-1" vertex="1">
          <mxGeometry x="190" y="220" width="100" height="90" as="geometry" />
        </mxCell>
        <mxCell id="WJT5H3Xv6onpYGz3A-zf-25" style="edgeStyle=orthogonalEdgeStyle;rounded=0;orthogonalLoop=1;jettySize=auto;html=1;entryX=1;entryY=0.75;entryDx=0;entryDy=0;exitX=0.5;exitY=1;exitDx=0;exitDy=0;" parent="WIyWlLk6GJQsqaUBKTNV-1" source="WIyWlLk6GJQsqaUBKTNV-7" target="WJT5H3Xv6onpYGz3A-zf-22" edge="1">
          <mxGeometry relative="1" as="geometry">
            <mxPoint x="410" y="300" as="targetPoint" />
            <mxPoint x="410" y="300" as="sourcePoint" />
            <Array as="points">
              <mxPoint x="410" y="290" />
              <mxPoint x="410" y="415" />
            </Array>
          </mxGeometry>
        </mxCell>
        <mxCell id="WIyWlLk6GJQsqaUBKTNV-7" value="Ir a comprar" style="rounded=1;whiteSpace=wrap;html=1;fontSize=12;glass=0;strokeWidth=1;shadow=0;fillColor=#ffe6cc;strokeColor=#d79b00;" parent="WIyWlLk6GJQsqaUBKTNV-1" vertex="1">
          <mxGeometry x="354" y="250" width="120" height="40" as="geometry" />
        </mxCell>
        <mxCell id="sqVygoDwtp7AHvXSVEUr-40" value="" style="edgeStyle=orthogonalEdgeStyle;rounded=0;orthogonalLoop=1;jettySize=auto;html=1;entryX=1;entryY=0.5;entryDx=0;entryDy=0;" edge="1" parent="WIyWlLk6GJQsqaUBKTNV-1" source="WIyWlLk6GJQsqaUBKTNV-11" target="sqVygoDwtp7AHvXSVEUr-35">
          <mxGeometry relative="1" as="geometry" />
        </mxCell>
        <mxCell id="WIyWlLk6GJQsqaUBKTNV-11" value="Batir con tenedor" style="rounded=1;whiteSpace=wrap;html=1;fontSize=12;glass=0;strokeWidth=1;shadow=0;fillColor=#ffe6cc;strokeColor=#d79b00;" parent="WIyWlLk6GJQsqaUBKTNV-1" vertex="1">
          <mxGeometry x="180" y="480" width="120" height="40" as="geometry" />
        </mxCell>
        <mxCell id="sqVygoDwtp7AHvXSVEUr-4" style="edgeStyle=orthogonalEdgeStyle;rounded=0;orthogonalLoop=1;jettySize=auto;html=1;exitX=0.5;exitY=1;exitDx=0;exitDy=0;entryX=0.5;entryY=0;entryDx=0;entryDy=0;" edge="1" parent="WIyWlLk6GJQsqaUBKTNV-1" source="WJT5H3Xv6onpYGz3A-zf-1" target="sqVygoDwtp7AHvXSVEUr-2">
          <mxGeometry relative="1" as="geometry" />
        </mxCell>
        <mxCell id="WJT5H3Xv6onpYGz3A-zf-1" value="" style="ellipse;whiteSpace=wrap;html=1;aspect=fixed;" parent="WIyWlLk6GJQsqaUBKTNV-1" vertex="1">
          <mxGeometry x="145" y="-680" width="50" height="50" as="geometry" />
        </mxCell>
        <mxCell id="WJT5H3Xv6onpYGz3A-zf-8" value="" style="edgeStyle=orthogonalEdgeStyle;rounded=0;orthogonalLoop=1;jettySize=auto;html=1;" parent="WIyWlLk6GJQsqaUBKTNV-1" source="WJT5H3Xv6onpYGz3A-zf-2" edge="1">
          <mxGeometry relative="1" as="geometry">
            <mxPoint x="220" y="40" as="targetPoint" />
            <Array as="points">
              <mxPoint x="220" y="-35" />
            </Array>
          </mxGeometry>
        </mxCell>
        <mxCell id="WJT5H3Xv6onpYGz3A-zf-13" value="" style="edgeStyle=orthogonalEdgeStyle;rounded=0;orthogonalLoop=1;jettySize=auto;html=1;" parent="WIyWlLk6GJQsqaUBKTNV-1" source="WJT5H3Xv6onpYGz3A-zf-2" target="WJT5H3Xv6onpYGz3A-zf-10" edge="1">
          <mxGeometry relative="1" as="geometry" />
        </mxCell>
        <mxCell id="WJT5H3Xv6onpYGz3A-zf-2" value="Hay harina&lt;br&gt;comÃºn?" style="rhombus;whiteSpace=wrap;html=1;fillColor=#ffe6cc;strokeColor=#d79b00;" parent="WIyWlLk6GJQsqaUBKTNV-1" vertex="1">
          <mxGeometry x="120" y="-75" width="80" height="80" as="geometry" />
        </mxCell>
        <mxCell id="WJT5H3Xv6onpYGz3A-zf-16" style="edgeStyle=orthogonalEdgeStyle;rounded=0;orthogonalLoop=1;jettySize=auto;html=1;" parent="WIyWlLk6GJQsqaUBKTNV-1" source="WJT5H3Xv6onpYGz3A-zf-10" edge="1">
          <mxGeometry relative="1" as="geometry">
            <mxPoint x="260" y="40" as="targetPoint" />
          </mxGeometry>
        </mxCell>
        <mxCell id="WJT5H3Xv6onpYGz3A-zf-10" value="Ir a comprar" style="rounded=1;whiteSpace=wrap;html=1;fillColor=#ffe6cc;strokeColor=#d79b00;" parent="WIyWlLk6GJQsqaUBKTNV-1" vertex="1">
          <mxGeometry x="100" y="-170" width="120" height="60" as="geometry" />
        </mxCell>
        <mxCell id="WJT5H3Xv6onpYGz3A-zf-14" value="No" style="text;html=1;align=center;verticalAlign=middle;resizable=0;points=[];autosize=1;strokeColor=none;fillColor=none;" parent="WIyWlLk6GJQsqaUBKTNV-1" vertex="1">
          <mxGeometry x="150" y="-105" width="40" height="30" as="geometry" />
        </mxCell>
        <mxCell id="WJT5H3Xv6onpYGz3A-zf-15" value="Si" style="text;html=1;align=center;verticalAlign=middle;resizable=0;points=[];autosize=1;strokeColor=none;fillColor=none;" parent="WIyWlLk6GJQsqaUBKTNV-1" vertex="1">
          <mxGeometry x="215" y="-5" width="30" height="30" as="geometry" />
        </mxCell>
        <mxCell id="WJT5H3Xv6onpYGz3A-zf-23" value="" style="edgeStyle=orthogonalEdgeStyle;rounded=0;orthogonalLoop=1;jettySize=auto;html=1;" parent="WIyWlLk6GJQsqaUBKTNV-1" source="WJT5H3Xv6onpYGz3A-zf-22" edge="1">
          <mxGeometry relative="1" as="geometry">
            <mxPoint x="240" y="480" as="targetPoint" />
          </mxGeometry>
        </mxCell>
        <mxCell id="WJT5H3Xv6onpYGz3A-zf-22" value="Romperlo en el bowl" style="rounded=1;whiteSpace=wrap;html=1;fillColor=#ffe6cc;strokeColor=#d79b00;" parent="WIyWlLk6GJQsqaUBKTNV-1" vertex="1">
          <mxGeometry x="180" y="370" width="120" height="60" as="geometry" />
        </mxCell>
        <mxCell id="WJT5H3Xv6onpYGz3A-zf-30" value="" style="edgeStyle=orthogonalEdgeStyle;rounded=0;orthogonalLoop=1;jettySize=auto;html=1;" parent="WIyWlLk6GJQsqaUBKTNV-1" source="WJT5H3Xv6onpYGz3A-zf-26" target="WIyWlLk6GJQsqaUBKTNV-6" edge="1">
          <mxGeometry relative="1" as="geometry" />
        </mxCell>
        <mxCell id="WJT5H3Xv6onpYGz3A-zf-26" value="Colocar harina en bowl" style="rounded=1;whiteSpace=wrap;html=1;fillColor=#ffe6cc;strokeColor=#d79b00;" parent="WIyWlLk6GJQsqaUBKTNV-1" vertex="1">
          <mxGeometry x="180" y="120" width="120" height="60" as="geometry" />
        </mxCell>
        <mxCell id="WJT5H3Xv6onpYGz3A-zf-38" value="" style="edgeStyle=orthogonalEdgeStyle;rounded=0;orthogonalLoop=1;jettySize=auto;html=1;" parent="WIyWlLk6GJQsqaUBKTNV-1" source="WJT5H3Xv6onpYGz3A-zf-31" target="WJT5H3Xv6onpYGz3A-zf-37" edge="1">
          <mxGeometry relative="1" as="geometry">
            <Array as="points">
              <mxPoint x="-75" y="830" />
              <mxPoint x="-75" y="830" />
            </Array>
          </mxGeometry>
        </mxCell>
        <mxCell id="sqVygoDwtp7AHvXSVEUr-42" value="No" style="edgeLabel;html=1;align=center;verticalAlign=middle;resizable=0;points=[];" vertex="1" connectable="0" parent="WJT5H3Xv6onpYGz3A-zf-38">
          <mxGeometry x="-0.2916" y="-3" relative="1" as="geometry">
            <mxPoint as="offset" />
          </mxGeometry>
        </mxCell>
        <mxCell id="sqVygoDwtp7AHvXSVEUr-63" value="" style="edgeStyle=orthogonalEdgeStyle;rounded=0;orthogonalLoop=1;jettySize=auto;html=1;" edge="1" parent="WIyWlLk6GJQsqaUBKTNV-1" source="WJT5H3Xv6onpYGz3A-zf-31" target="WJT5H3Xv6onpYGz3A-zf-33">
          <mxGeometry relative="1" as="geometry" />
        </mxCell>
        <mxCell id="WJT5H3Xv6onpYGz3A-zf-31" value="Tengo banana?" style="rhombus;whiteSpace=wrap;html=1;fillColor=#ffe6cc;strokeColor=#d79b00;" parent="WIyWlLk6GJQsqaUBKTNV-1" vertex="1">
          <mxGeometry x="-55" y="790" width="80" height="80" as="geometry" />
        </mxCell>
        <mxCell id="sqVygoDwtp7AHvXSVEUr-65" value="" style="edgeStyle=orthogonalEdgeStyle;rounded=0;orthogonalLoop=1;jettySize=auto;html=1;" edge="1" parent="WIyWlLk6GJQsqaUBKTNV-1" source="WJT5H3Xv6onpYGz3A-zf-33" target="WJT5H3Xv6onpYGz3A-zf-35">
          <mxGeometry relative="1" as="geometry" />
        </mxCell>
        <mxCell id="WJT5H3Xv6onpYGz3A-zf-33" value="Buscar un plato" style="rounded=1;whiteSpace=wrap;html=1;fillColor=#ffe6cc;strokeColor=#d79b00;" parent="WIyWlLk6GJQsqaUBKTNV-1" vertex="1">
          <mxGeometry x="-60" y="950" width="90" height="60" as="geometry" />
        </mxCell>
        <mxCell id="WJT5H3Xv6onpYGz3A-zf-40" value="" style="edgeStyle=orthogonalEdgeStyle;rounded=0;orthogonalLoop=1;jettySize=auto;html=1;" parent="WIyWlLk6GJQsqaUBKTNV-1" source="WJT5H3Xv6onpYGz3A-zf-35" target="WJT5H3Xv6onpYGz3A-zf-39" edge="1">
          <mxGeometry relative="1" as="geometry">
            <Array as="points">
              <mxPoint x="-15" y="1199" />
            </Array>
          </mxGeometry>
        </mxCell>
        <mxCell id="WJT5H3Xv6onpYGz3A-zf-35" value="Pisar&amp;nbsp; banana" style="whiteSpace=wrap;html=1;rounded=1;fillColor=#ffe6cc;strokeColor=#d79b00;" parent="WIyWlLk6GJQsqaUBKTNV-1" vertex="1">
          <mxGeometry x="-60" y="1050" width="90" height="60" as="geometry" />
        </mxCell>
        <mxCell id="sqVygoDwtp7AHvXSVEUr-53" style="edgeStyle=orthogonalEdgeStyle;rounded=0;orthogonalLoop=1;jettySize=auto;html=1;entryX=0;entryY=0.5;entryDx=0;entryDy=0;" edge="1" parent="WIyWlLk6GJQsqaUBKTNV-1" source="WJT5H3Xv6onpYGz3A-zf-37" target="WJT5H3Xv6onpYGz3A-zf-33">
          <mxGeometry relative="1" as="geometry">
            <mxPoint x="-145" y="930" as="targetPoint" />
            <Array as="points">
              <mxPoint x="-145" y="980" />
            </Array>
          </mxGeometry>
        </mxCell>
        <mxCell id="WJT5H3Xv6onpYGz3A-zf-37" value="Ir a comprar" style="rounded=1;whiteSpace=wrap;html=1;fillColor=#ffe6cc;strokeColor=#d79b00;" parent="WIyWlLk6GJQsqaUBKTNV-1" vertex="1">
          <mxGeometry x="-175" y="800" width="60" height="60" as="geometry" />
        </mxCell>
        <mxCell id="WJT5H3Xv6onpYGz3A-zf-42" value="" style="edgeStyle=orthogonalEdgeStyle;rounded=0;orthogonalLoop=1;jettySize=auto;html=1;" parent="WIyWlLk6GJQsqaUBKTNV-1" source="WJT5H3Xv6onpYGz3A-zf-39" target="WJT5H3Xv6onpYGz3A-zf-41" edge="1">
          <mxGeometry relative="1" as="geometry" />
        </mxCell>
        <mxCell id="WJT5H3Xv6onpYGz3A-zf-39" value="Colocarla en el bowl con los demÃ¡s elementos" style="rounded=1;whiteSpace=wrap;html=1;" parent="WIyWlLk6GJQsqaUBKTNV-1" vertex="1">
          <mxGeometry x="20" y="1169" width="120" height="60" as="geometry" />
        </mxCell>
        <mxCell id="sqVygoDwtp7AHvXSVEUr-90" value="" style="edgeStyle=orthogonalEdgeStyle;rounded=0;orthogonalLoop=1;jettySize=auto;html=1;" edge="1" parent="WIyWlLk6GJQsqaUBKTNV-1" source="WJT5H3Xv6onpYGz3A-zf-41" target="sqVygoDwtp7AHvXSVEUr-69">
          <mxGeometry relative="1" as="geometry" />
        </mxCell>
        <mxCell id="WJT5H3Xv6onpYGz3A-zf-41" value="Colocar esencia de vainilla en el bowl" style="rounded=1;whiteSpace=wrap;html=1;" parent="WIyWlLk6GJQsqaUBKTNV-1" vertex="1">
          <mxGeometry x="20" y="1280" width="120" height="60" as="geometry" />
        </mxCell>
        <mxCell id="sqVygoDwtp7AHvXSVEUr-98" value="" style="edgeStyle=orthogonalEdgeStyle;rounded=0;orthogonalLoop=1;jettySize=auto;html=1;" edge="1" parent="WIyWlLk6GJQsqaUBKTNV-1" source="WJT5H3Xv6onpYGz3A-zf-45" target="WJT5H3Xv6onpYGz3A-zf-47">
          <mxGeometry relative="1" as="geometry">
            <Array as="points">
              <mxPoint x="80" y="1870" />
              <mxPoint x="80" y="1870" />
            </Array>
          </mxGeometry>
        </mxCell>
        <mxCell id="WJT5H3Xv6onpYGz3A-zf-45" value="Buscar una sarten&amp;nbsp;" style="rounded=1;whiteSpace=wrap;html=1;fillColor=#d5e8d4;strokeColor=#82b366;" parent="WIyWlLk6GJQsqaUBKTNV-1" vertex="1">
          <mxGeometry x="20" y="1780" width="120" height="60" as="geometry" />
        </mxCell>
        <mxCell id="sqVygoDwtp7AHvXSVEUr-96" style="edgeStyle=orthogonalEdgeStyle;rounded=0;orthogonalLoop=1;jettySize=auto;html=1;entryX=0;entryY=0.5;entryDx=0;entryDy=0;" edge="1" parent="WIyWlLk6GJQsqaUBKTNV-1" source="WJT5H3Xv6onpYGz3A-zf-47" target="WJT5H3Xv6onpYGz3A-zf-51">
          <mxGeometry relative="1" as="geometry">
            <mxPoint x="82.5" y="2070" as="targetPoint" />
            <Array as="points">
              <mxPoint x="80" y="2060" />
            </Array>
          </mxGeometry>
        </mxCell>
        <mxCell id="WJT5H3Xv6onpYGz3A-zf-47" value="Precalentar la sarten" style="rounded=1;whiteSpace=wrap;html=1;fillColor=#d5e8d4;strokeColor=#82b366;" parent="WIyWlLk6GJQsqaUBKTNV-1" vertex="1">
          <mxGeometry x="22.5" y="1880" width="120" height="60" as="geometry" />
        </mxCell>
        <mxCell id="WJT5H3Xv6onpYGz3A-zf-53" value="" style="edgeStyle=orthogonalEdgeStyle;rounded=0;orthogonalLoop=1;jettySize=auto;html=1;" parent="WIyWlLk6GJQsqaUBKTNV-1" source="WJT5H3Xv6onpYGz3A-zf-51" target="WJT5H3Xv6onpYGz3A-zf-52" edge="1">
          <mxGeometry relative="1" as="geometry" />
        </mxCell>
        <mxCell id="WJT5H3Xv6onpYGz3A-zf-55" value="" style="edgeStyle=orthogonalEdgeStyle;rounded=0;orthogonalLoop=1;jettySize=auto;html=1;" parent="WIyWlLk6GJQsqaUBKTNV-1" source="WJT5H3Xv6onpYGz3A-zf-51" target="WJT5H3Xv6onpYGz3A-zf-54" edge="1">
          <mxGeometry relative="1" as="geometry" />
        </mxCell>
        <mxCell id="WJT5H3Xv6onpYGz3A-zf-51" value="Tengo aceite?&amp;nbsp;" style="rhombus;whiteSpace=wrap;html=1;fillColor=#d5e8d4;strokeColor=#82b366;" parent="WIyWlLk6GJQsqaUBKTNV-1" vertex="1">
          <mxGeometry x="247" y="2020" width="80" height="80" as="geometry" />
        </mxCell>
        <mxCell id="WJT5H3Xv6onpYGz3A-zf-52" value="Ir a comprar" style="rounded=1;whiteSpace=wrap;html=1;fillColor=#d5e8d4;strokeColor=#82b366;" parent="WIyWlLk6GJQsqaUBKTNV-1" vertex="1">
          <mxGeometry x="387" y="2030" width="120" height="60" as="geometry" />
        </mxCell>
        <mxCell id="WJT5H3Xv6onpYGz3A-zf-57" value="" style="edgeStyle=orthogonalEdgeStyle;rounded=0;orthogonalLoop=1;jettySize=auto;html=1;" parent="WIyWlLk6GJQsqaUBKTNV-1" source="WJT5H3Xv6onpYGz3A-zf-54" target="WJT5H3Xv6onpYGz3A-zf-56" edge="1">
          <mxGeometry relative="1" as="geometry" />
        </mxCell>
        <mxCell id="WJT5H3Xv6onpYGz3A-zf-54" value="Colocar unas gotas de aceite" style="rounded=1;whiteSpace=wrap;html=1;fillColor=#d5e8d4;strokeColor=#82b366;" parent="WIyWlLk6GJQsqaUBKTNV-1" vertex="1">
          <mxGeometry x="227" y="2190" width="120" height="60" as="geometry" />
        </mxCell>
        <mxCell id="WJT5H3Xv6onpYGz3A-zf-62" value="" style="edgeStyle=orthogonalEdgeStyle;rounded=0;orthogonalLoop=1;jettySize=auto;html=1;" parent="WIyWlLk6GJQsqaUBKTNV-1" source="WJT5H3Xv6onpYGz3A-zf-56" target="WJT5H3Xv6onpYGz3A-zf-61" edge="1">
          <mxGeometry relative="1" as="geometry" />
        </mxCell>
        <mxCell id="WJT5H3Xv6onpYGz3A-zf-56" value="Esparcir&amp;nbsp;" style="rounded=1;whiteSpace=wrap;html=1;fillColor=#d5e8d4;strokeColor=#82b366;" parent="WIyWlLk6GJQsqaUBKTNV-1" vertex="1">
          <mxGeometry x="227" y="2330" width="120" height="60" as="geometry" />
        </mxCell>
        <mxCell id="WJT5H3Xv6onpYGz3A-zf-58" value="No" style="text;html=1;align=center;verticalAlign=middle;resizable=0;points=[];autosize=1;strokeColor=none;fillColor=none;" parent="WIyWlLk6GJQsqaUBKTNV-1" vertex="1">
          <mxGeometry x="327" y="2055" width="40" height="30" as="geometry" />
        </mxCell>
        <mxCell id="WJT5H3Xv6onpYGz3A-zf-59" value="Si" style="text;html=1;align=center;verticalAlign=middle;resizable=0;points=[];autosize=1;strokeColor=none;fillColor=none;" parent="WIyWlLk6GJQsqaUBKTNV-1" vertex="1">
          <mxGeometry x="282" y="2115" width="30" height="30" as="geometry" />
        </mxCell>
        <mxCell id="WJT5H3Xv6onpYGz3A-zf-64" value="" style="edgeStyle=orthogonalEdgeStyle;rounded=0;orthogonalLoop=1;jettySize=auto;html=1;" parent="WIyWlLk6GJQsqaUBKTNV-1" source="WJT5H3Xv6onpYGz3A-zf-61" target="WJT5H3Xv6onpYGz3A-zf-63" edge="1">
          <mxGeometry relative="1" as="geometry" />
        </mxCell>
        <mxCell id="WJT5H3Xv6onpYGz3A-zf-61" value="Colocar 3 cucharadas de la mezcla en la sarten" style="rounded=1;whiteSpace=wrap;html=1;fillColor=#d5e8d4;strokeColor=#82b366;" parent="WIyWlLk6GJQsqaUBKTNV-1" vertex="1">
          <mxGeometry x="227" y="2470" width="120" height="60" as="geometry" />
        </mxCell>
        <mxCell id="WJT5H3Xv6onpYGz3A-zf-66" value="" style="edgeStyle=orthogonalEdgeStyle;rounded=0;orthogonalLoop=1;jettySize=auto;html=1;" parent="WIyWlLk6GJQsqaUBKTNV-1" source="WJT5H3Xv6onpYGz3A-zf-63" edge="1">
          <mxGeometry relative="1" as="geometry">
            <mxPoint x="447" y="2640" as="targetPoint" />
          </mxGeometry>
        </mxCell>
        <mxCell id="WJT5H3Xv6onpYGz3A-zf-63" value="Esperar&amp;nbsp; 1&#39;" style="rounded=1;whiteSpace=wrap;html=1;fillColor=#d5e8d4;strokeColor=#82b366;" parent="WIyWlLk6GJQsqaUBKTNV-1" vertex="1">
          <mxGeometry x="227" y="2610" width="120" height="60" as="geometry" />
        </mxCell>
        <mxCell id="WJT5H3Xv6onpYGz3A-zf-69" value="" style="edgeStyle=orthogonalEdgeStyle;rounded=0;orthogonalLoop=1;jettySize=auto;html=1;" parent="WIyWlLk6GJQsqaUBKTNV-1" source="WJT5H3Xv6onpYGz3A-zf-67" edge="1">
          <mxGeometry relative="1" as="geometry">
            <mxPoint x="501" y="2770" as="targetPoint" />
          </mxGeometry>
        </mxCell>
        <mxCell id="WJT5H3Xv6onpYGz3A-zf-71" value="" style="edgeStyle=orthogonalEdgeStyle;rounded=0;orthogonalLoop=1;jettySize=auto;html=1;" parent="WIyWlLk6GJQsqaUBKTNV-1" source="WJT5H3Xv6onpYGz3A-zf-67" target="WJT5H3Xv6onpYGz3A-zf-70" edge="1">
          <mxGeometry relative="1" as="geometry" />
        </mxCell>
        <mxCell id="WJT5H3Xv6onpYGz3A-zf-67" value="Se le formaron burbujas?" style="rhombus;whiteSpace=wrap;html=1;fillColor=#d5e8d4;strokeColor=#82b366;" parent="WIyWlLk6GJQsqaUBKTNV-1" vertex="1">
          <mxGeometry x="446" y="2585" width="110" height="110" as="geometry" />
        </mxCell>
        <mxCell id="WJT5H3Xv6onpYGz3A-zf-94" value="" style="edgeStyle=orthogonalEdgeStyle;rounded=0;orthogonalLoop=1;jettySize=auto;html=1;" parent="WIyWlLk6GJQsqaUBKTNV-1" source="WJT5H3Xv6onpYGz3A-zf-68" target="WJT5H3Xv6onpYGz3A-zf-93" edge="1">
          <mxGeometry relative="1" as="geometry" />
        </mxCell>
        <mxCell id="WJT5H3Xv6onpYGz3A-zf-68" value="Dar vuelta" style="rounded=1;whiteSpace=wrap;html=1;fillColor=#d5e8d4;strokeColor=#82b366;" parent="WIyWlLk6GJQsqaUBKTNV-1" vertex="1">
          <mxGeometry x="441" y="2770" width="120" height="60" as="geometry" />
        </mxCell>
        <mxCell id="WJT5H3Xv6onpYGz3A-zf-77" style="edgeStyle=orthogonalEdgeStyle;rounded=0;orthogonalLoop=1;jettySize=auto;html=1;entryX=0.5;entryY=0;entryDx=0;entryDy=0;" parent="WIyWlLk6GJQsqaUBKTNV-1" source="WJT5H3Xv6onpYGz3A-zf-70" target="WJT5H3Xv6onpYGz3A-zf-67" edge="1">
          <mxGeometry relative="1" as="geometry">
            <mxPoint x="607" y="2800" as="targetPoint" />
            <Array as="points">
              <mxPoint x="707" y="2500" />
              <mxPoint x="501" y="2500" />
            </Array>
          </mxGeometry>
        </mxCell>
        <mxCell id="WJT5H3Xv6onpYGz3A-zf-70" value="Espero 30&quot;" style="rounded=1;whiteSpace=wrap;html=1;fillColor=#d5e8d4;strokeColor=#82b366;" parent="WIyWlLk6GJQsqaUBKTNV-1" vertex="1">
          <mxGeometry x="637" y="2610" width="120" height="60" as="geometry" />
        </mxCell>
        <mxCell id="WJT5H3Xv6onpYGz3A-zf-72" value="No" style="text;html=1;align=center;verticalAlign=middle;resizable=0;points=[];autosize=1;strokeColor=none;fillColor=none;" parent="WIyWlLk6GJQsqaUBKTNV-1" vertex="1">
          <mxGeometry x="562" y="2610" width="40" height="30" as="geometry" />
        </mxCell>
        <mxCell id="WJT5H3Xv6onpYGz3A-zf-73" value="Si" style="text;html=1;align=center;verticalAlign=middle;resizable=0;points=[];autosize=1;strokeColor=none;fillColor=none;" parent="WIyWlLk6GJQsqaUBKTNV-1" vertex="1">
          <mxGeometry x="472" y="2715" width="30" height="30" as="geometry" />
        </mxCell>
        <mxCell id="WJT5H3Xv6onpYGz3A-zf-82" value="" style="edgeStyle=orthogonalEdgeStyle;rounded=0;orthogonalLoop=1;jettySize=auto;html=1;" parent="WIyWlLk6GJQsqaUBKTNV-1" source="WJT5H3Xv6onpYGz3A-zf-79" edge="1">
          <mxGeometry relative="1" as="geometry">
            <mxPoint x="501" y="3200" as="targetPoint" />
          </mxGeometry>
        </mxCell>
        <mxCell id="WJT5H3Xv6onpYGz3A-zf-79" value="Retirar&amp;nbsp;" style="rounded=1;whiteSpace=wrap;html=1;fillColor=#d5e8d4;strokeColor=#82b366;" parent="WIyWlLk6GJQsqaUBKTNV-1" vertex="1">
          <mxGeometry x="442" y="3080" width="120" height="60" as="geometry" />
        </mxCell>
        <mxCell id="WJT5H3Xv6onpYGz3A-zf-84" value="No" style="edgeStyle=orthogonalEdgeStyle;rounded=0;orthogonalLoop=1;jettySize=auto;html=1;startArrow=none;" parent="WIyWlLk6GJQsqaUBKTNV-1" source="WJT5H3Xv6onpYGz3A-zf-102" target="WJT5H3Xv6onpYGz3A-zf-83" edge="1">
          <mxGeometry y="-14" relative="1" as="geometry">
            <mxPoint x="501" y="3260" as="sourcePoint" />
            <mxPoint y="-1" as="offset" />
          </mxGeometry>
        </mxCell>
        <mxCell id="WJT5H3Xv6onpYGz3A-zf-86" value="" style="edgeStyle=orthogonalEdgeStyle;rounded=0;orthogonalLoop=1;jettySize=auto;html=1;" parent="WIyWlLk6GJQsqaUBKTNV-1" source="WJT5H3Xv6onpYGz3A-zf-83" target="WJT5H3Xv6onpYGz3A-zf-85" edge="1">
          <mxGeometry relative="1" as="geometry" />
        </mxCell>
        <mxCell id="WJT5H3Xv6onpYGz3A-zf-83" value="Emplatar" style="rounded=1;whiteSpace=wrap;html=1;fillColor=#e1d5e7;strokeColor=#9673a6;" parent="WIyWlLk6GJQsqaUBKTNV-1" vertex="1">
          <mxGeometry x="441" y="3340" width="120" height="60" as="geometry" />
        </mxCell>
        <mxCell id="WJT5H3Xv6onpYGz3A-zf-88" style="edgeStyle=orthogonalEdgeStyle;rounded=0;orthogonalLoop=1;jettySize=auto;html=1;" parent="WIyWlLk6GJQsqaUBKTNV-1" source="WJT5H3Xv6onpYGz3A-zf-85" edge="1">
          <mxGeometry relative="1" as="geometry">
            <mxPoint x="501" y="3630" as="targetPoint" />
          </mxGeometry>
        </mxCell>
        <mxCell id="WJT5H3Xv6onpYGz3A-zf-85" value="A Comeeer" style="rounded=1;whiteSpace=wrap;html=1;fillColor=#e1d5e7;strokeColor=#9673a6;" parent="WIyWlLk6GJQsqaUBKTNV-1" vertex="1">
          <mxGeometry x="441" y="3480" width="120" height="60" as="geometry" />
        </mxCell>
        <mxCell id="WJT5H3Xv6onpYGz3A-zf-87" value="" style="ellipse;whiteSpace=wrap;html=1;aspect=fixed;" parent="WIyWlLk6GJQsqaUBKTNV-1" vertex="1">
          <mxGeometry x="471" y="3630" width="60" height="60" as="geometry" />
        </mxCell>
        <mxCell id="WJT5H3Xv6onpYGz3A-zf-96" value="" style="edgeStyle=orthogonalEdgeStyle;rounded=0;orthogonalLoop=1;jettySize=auto;html=1;" parent="WIyWlLk6GJQsqaUBKTNV-1" source="WJT5H3Xv6onpYGz3A-zf-93" target="WJT5H3Xv6onpYGz3A-zf-79" edge="1">
          <mxGeometry relative="1" as="geometry" />
        </mxCell>
        <mxCell id="WJT5H3Xv6onpYGz3A-zf-98" value="" style="edgeStyle=orthogonalEdgeStyle;rounded=0;orthogonalLoop=1;jettySize=auto;html=1;" parent="WIyWlLk6GJQsqaUBKTNV-1" source="WJT5H3Xv6onpYGz3A-zf-93" target="WJT5H3Xv6onpYGz3A-zf-97" edge="1">
          <mxGeometry relative="1" as="geometry" />
        </mxCell>
        <mxCell id="WJT5H3Xv6onpYGz3A-zf-93" value="Ya tiene el color deseado?" style="rhombus;whiteSpace=wrap;html=1;fillColor=#d5e8d4;strokeColor=#82b366;" parent="WIyWlLk6GJQsqaUBKTNV-1" vertex="1">
          <mxGeometry x="441" y="2890" width="120" height="110" as="geometry" />
        </mxCell>
        <mxCell id="WJT5H3Xv6onpYGz3A-zf-101" style="edgeStyle=orthogonalEdgeStyle;rounded=0;orthogonalLoop=1;jettySize=auto;html=1;exitX=0.5;exitY=0;exitDx=0;exitDy=0;entryX=1;entryY=0;entryDx=0;entryDy=0;" parent="WIyWlLk6GJQsqaUBKTNV-1" source="WJT5H3Xv6onpYGz3A-zf-97" target="WJT5H3Xv6onpYGz3A-zf-93" edge="1">
          <mxGeometry relative="1" as="geometry">
            <Array as="points">
              <mxPoint x="701" y="2895" />
              <mxPoint x="531" y="2895" />
            </Array>
          </mxGeometry>
        </mxCell>
        <mxCell id="WJT5H3Xv6onpYGz3A-zf-97" value="Esperar 15&#39;" style="rounded=1;whiteSpace=wrap;html=1;fillColor=#d5e8d4;strokeColor=#82b366;" parent="WIyWlLk6GJQsqaUBKTNV-1" vertex="1">
          <mxGeometry x="641" y="2915" width="120" height="60" as="geometry" />
        </mxCell>
        <mxCell id="WJT5H3Xv6onpYGz3A-zf-99" value="No" style="text;html=1;align=center;verticalAlign=middle;resizable=0;points=[];autosize=1;strokeColor=none;fillColor=none;" parent="WIyWlLk6GJQsqaUBKTNV-1" vertex="1">
          <mxGeometry x="567" y="2915" width="40" height="30" as="geometry" />
        </mxCell>
        <mxCell id="WJT5H3Xv6onpYGz3A-zf-100" value="Si" style="text;html=1;align=center;verticalAlign=middle;resizable=0;points=[];autosize=1;strokeColor=none;fillColor=none;" parent="WIyWlLk6GJQsqaUBKTNV-1" vertex="1">
          <mxGeometry x="462" y="3005" width="30" height="30" as="geometry" />
        </mxCell>
        <mxCell id="WJT5H3Xv6onpYGz3A-zf-104" style="edgeStyle=orthogonalEdgeStyle;rounded=0;orthogonalLoop=1;jettySize=auto;html=1;entryX=0;entryY=0.25;entryDx=0;entryDy=0;" parent="WIyWlLk6GJQsqaUBKTNV-1" source="WJT5H3Xv6onpYGz3A-zf-102" target="WJT5H3Xv6onpYGz3A-zf-61" edge="1">
          <mxGeometry relative="1" as="geometry">
            <mxPoint x="167" y="2500" as="targetPoint" />
            <Array as="points">
              <mxPoint x="187" y="3240" />
              <mxPoint x="187" y="2485" />
            </Array>
          </mxGeometry>
        </mxCell>
        <mxCell id="WJT5H3Xv6onpYGz3A-zf-102" value="Queda mezcla?" style="rhombus;whiteSpace=wrap;html=1;fillColor=#d5e8d4;strokeColor=#82b366;" parent="WIyWlLk6GJQsqaUBKTNV-1" vertex="1">
          <mxGeometry x="461" y="3200" width="80" height="80" as="geometry" />
        </mxCell>
        <mxCell id="WJT5H3Xv6onpYGz3A-zf-105" value="Si" style="text;html=1;align=center;verticalAlign=middle;resizable=0;points=[];autosize=1;strokeColor=none;fillColor=none;" parent="WIyWlLk6GJQsqaUBKTNV-1" vertex="1">
          <mxGeometry x="352" y="3215" width="30" height="30" as="geometry" />
        </mxCell>
        <mxCell id="sqVygoDwtp7AHvXSVEUr-5" style="edgeStyle=orthogonalEdgeStyle;rounded=0;orthogonalLoop=1;jettySize=auto;html=1;exitX=0.5;exitY=1;exitDx=0;exitDy=0;" edge="1" parent="WIyWlLk6GJQsqaUBKTNV-1" source="sqVygoDwtp7AHvXSVEUr-2" target="sqVygoDwtp7AHvXSVEUr-3">
          <mxGeometry relative="1" as="geometry" />
        </mxCell>
        <mxCell id="sqVygoDwtp7AHvXSVEUr-2" value="Preguntar &lt;b&gt;sabor&lt;/b&gt;&lt;br&gt;opciones:&lt;br&gt;clasico&lt;br&gt;banana&lt;br&gt;manzana" style="shape=process;whiteSpace=wrap;html=1;backgroundOutline=1;" vertex="1" parent="WIyWlLk6GJQsqaUBKTNV-1">
          <mxGeometry x="85" y="-590" width="170" height="100" as="geometry" />
        </mxCell>
        <mxCell id="sqVygoDwtp7AHvXSVEUr-8" value="" style="edgeStyle=orthogonalEdgeStyle;rounded=0;orthogonalLoop=1;jettySize=auto;html=1;" edge="1" parent="WIyWlLk6GJQsqaUBKTNV-1" source="sqVygoDwtp7AHvXSVEUr-3" target="sqVygoDwtp7AHvXSVEUr-6">
          <mxGeometry relative="1" as="geometry" />
        </mxCell>
        <mxCell id="sqVygoDwtp7AHvXSVEUr-3" value="Preguntar por &lt;b&gt;tipo &lt;/b&gt;de harina:&lt;br&gt;comun&lt;br&gt;sin tacc" style="shape=process;whiteSpace=wrap;html=1;backgroundOutline=1;" vertex="1" parent="WIyWlLk6GJQsqaUBKTNV-1">
          <mxGeometry x="85" y="-460" width="170" height="100" as="geometry" />
        </mxCell>
        <mxCell id="sqVygoDwtp7AHvXSVEUr-7" style="edgeStyle=orthogonalEdgeStyle;rounded=0;orthogonalLoop=1;jettySize=auto;html=1;entryX=0;entryY=0.5;entryDx=0;entryDy=0;" edge="1" parent="WIyWlLk6GJQsqaUBKTNV-1" source="sqVygoDwtp7AHvXSVEUr-6" target="WJT5H3Xv6onpYGz3A-zf-2">
          <mxGeometry relative="1" as="geometry">
            <mxPoint x="70" y="-40" as="targetPoint" />
            <Array as="points">
              <mxPoint x="399" y="-300" />
              <mxPoint x="70" y="-300" />
              <mxPoint x="70" y="-35" />
            </Array>
          </mxGeometry>
        </mxCell>
        <mxCell id="sqVygoDwtp7AHvXSVEUr-10" value="" style="edgeStyle=orthogonalEdgeStyle;rounded=0;orthogonalLoop=1;jettySize=auto;html=1;" edge="1" parent="WIyWlLk6GJQsqaUBKTNV-1" source="sqVygoDwtp7AHvXSVEUr-6" target="sqVygoDwtp7AHvXSVEUr-9">
          <mxGeometry relative="1" as="geometry" />
        </mxCell>
        <mxCell id="sqVygoDwtp7AHvXSVEUr-6" value="tipo=&lt;br&gt;&amp;nbsp;comun" style="rhombus;whiteSpace=wrap;html=1;fillColor=#ffe6cc;strokeColor=#d79b00;" vertex="1" parent="WIyWlLk6GJQsqaUBKTNV-1">
          <mxGeometry x="359" y="-450" width="80" height="80" as="geometry" />
        </mxCell>
        <mxCell id="sqVygoDwtp7AHvXSVEUr-15" value="si" style="edgeStyle=orthogonalEdgeStyle;rounded=0;orthogonalLoop=1;jettySize=auto;html=1;entryX=0.5;entryY=0;entryDx=0;entryDy=0;" edge="1" parent="WIyWlLk6GJQsqaUBKTNV-1" source="sqVygoDwtp7AHvXSVEUr-9" target="sqVygoDwtp7AHvXSVEUr-14">
          <mxGeometry relative="1" as="geometry" />
        </mxCell>
        <mxCell id="sqVygoDwtp7AHvXSVEUr-25" value="no" style="edgeStyle=orthogonalEdgeStyle;rounded=0;orthogonalLoop=1;jettySize=auto;html=1;exitX=1;exitY=0.5;exitDx=0;exitDy=0;" edge="1" parent="WIyWlLk6GJQsqaUBKTNV-1" source="sqVygoDwtp7AHvXSVEUr-9" target="sqVygoDwtp7AHvXSVEUr-24">
          <mxGeometry relative="1" as="geometry" />
        </mxCell>
        <mxCell id="sqVygoDwtp7AHvXSVEUr-9" value="tipo=&amp;nbsp;&lt;br&gt;sin tacc" style="rhombus;whiteSpace=wrap;html=1;fillColor=#ffe6cc;strokeColor=#d79b00;" vertex="1" parent="WIyWlLk6GJQsqaUBKTNV-1">
          <mxGeometry x="490" y="-450" width="80" height="80" as="geometry" />
        </mxCell>
        <mxCell id="sqVygoDwtp7AHvXSVEUr-11" value="No" style="text;html=1;align=center;verticalAlign=middle;resizable=0;points=[];autosize=1;strokeColor=none;fillColor=none;" vertex="1" parent="WIyWlLk6GJQsqaUBKTNV-1">
          <mxGeometry x="440" y="-445" width="40" height="30" as="geometry" />
        </mxCell>
        <mxCell id="sqVygoDwtp7AHvXSVEUr-12" value="Si" style="text;html=1;align=center;verticalAlign=middle;resizable=0;points=[];autosize=1;strokeColor=none;fillColor=none;" vertex="1" parent="WIyWlLk6GJQsqaUBKTNV-1">
          <mxGeometry x="365" y="-365" width="30" height="30" as="geometry" />
        </mxCell>
        <mxCell id="sqVygoDwtp7AHvXSVEUr-17" value="" style="edgeStyle=orthogonalEdgeStyle;rounded=0;orthogonalLoop=1;jettySize=auto;html=1;" edge="1" parent="WIyWlLk6GJQsqaUBKTNV-1" source="sqVygoDwtp7AHvXSVEUr-14" target="sqVygoDwtp7AHvXSVEUr-16">
          <mxGeometry relative="1" as="geometry" />
        </mxCell>
        <mxCell id="sqVygoDwtp7AHvXSVEUr-23" style="edgeStyle=orthogonalEdgeStyle;rounded=0;orthogonalLoop=1;jettySize=auto;html=1;entryX=0.825;entryY=-0.075;entryDx=0;entryDy=0;entryPerimeter=0;" edge="1" parent="WIyWlLk6GJQsqaUBKTNV-1" source="sqVygoDwtp7AHvXSVEUr-14" target="WIyWlLk6GJQsqaUBKTNV-3">
          <mxGeometry relative="1" as="geometry" />
        </mxCell>
        <mxCell id="sqVygoDwtp7AHvXSVEUr-14" value="Hay premezcla&lt;br&gt;?" style="rhombus;whiteSpace=wrap;html=1;fillColor=#ffe6cc;strokeColor=#d79b00;" vertex="1" parent="WIyWlLk6GJQsqaUBKTNV-1">
          <mxGeometry x="490" y="-80" width="80" height="80" as="geometry" />
        </mxCell>
        <mxCell id="sqVygoDwtp7AHvXSVEUr-20" style="edgeStyle=orthogonalEdgeStyle;rounded=0;orthogonalLoop=1;jettySize=auto;html=1;entryX=0.867;entryY=1.075;entryDx=0;entryDy=0;entryPerimeter=0;" edge="1" parent="WIyWlLk6GJQsqaUBKTNV-1" source="sqVygoDwtp7AHvXSVEUr-16" target="WIyWlLk6GJQsqaUBKTNV-3">
          <mxGeometry relative="1" as="geometry">
            <mxPoint x="285" y="90" as="targetPoint" />
            <Array as="points">
              <mxPoint x="690" y="110" />
              <mxPoint x="285" y="110" />
            </Array>
          </mxGeometry>
        </mxCell>
        <mxCell id="sqVygoDwtp7AHvXSVEUr-16" value="Ir a comprar" style="rounded=1;whiteSpace=wrap;html=1;fillColor=#ffe6cc;strokeColor=#d79b00;" vertex="1" parent="WIyWlLk6GJQsqaUBKTNV-1">
          <mxGeometry x="630" y="-70" width="120" height="60" as="geometry" />
        </mxCell>
        <mxCell id="sqVygoDwtp7AHvXSVEUr-21" value="No" style="text;html=1;align=center;verticalAlign=middle;resizable=0;points=[];autosize=1;strokeColor=none;fillColor=none;" vertex="1" parent="WIyWlLk6GJQsqaUBKTNV-1">
          <mxGeometry x="570" y="-65" width="40" height="30" as="geometry" />
        </mxCell>
        <mxCell id="sqVygoDwtp7AHvXSVEUr-22" value="Si" style="text;html=1;align=center;verticalAlign=middle;resizable=0;points=[];autosize=1;strokeColor=none;fillColor=none;" vertex="1" parent="WIyWlLk6GJQsqaUBKTNV-1">
          <mxGeometry x="435" y="-65" width="30" height="30" as="geometry" />
        </mxCell>
        <mxCell id="sqVygoDwtp7AHvXSVEUr-24" value="" style="verticalLabelPosition=bottom;verticalAlign=top;html=1;shape=mxgraph.basic.flash" vertex="1" parent="WIyWlLk6GJQsqaUBKTNV-1">
          <mxGeometry x="650" y="-460" width="60" height="100" as="geometry" />
        </mxCell>
        <mxCell id="sqVygoDwtp7AHvXSVEUr-35" value="sabor" style="triangle;whiteSpace=wrap;html=1;rotation=-90;" vertex="1" parent="WIyWlLk6GJQsqaUBKTNV-1">
          <mxGeometry x="196.55999999999995" y="400" width="87.25" height="422.37" as="geometry" />
        </mxCell>
        <mxCell id="sqVygoDwtp7AHvXSVEUr-46" style="edgeStyle=orthogonalEdgeStyle;rounded=0;orthogonalLoop=1;jettySize=auto;html=1;entryX=0.5;entryY=0;entryDx=0;entryDy=0;" edge="1" parent="WIyWlLk6GJQsqaUBKTNV-1" source="sqVygoDwtp7AHvXSVEUr-36" target="WJT5H3Xv6onpYGz3A-zf-31">
          <mxGeometry relative="1" as="geometry">
            <Array as="points">
              <mxPoint x="-15" y="685" />
            </Array>
          </mxGeometry>
        </mxCell>
        <mxCell id="sqVygoDwtp7AHvXSVEUr-36" value="Banana" style="rounded=0;whiteSpace=wrap;html=1;fontStyle=1" vertex="1" parent="WIyWlLk6GJQsqaUBKTNV-1">
          <mxGeometry x="30" y="654.8" width="105" height="60" as="geometry" />
        </mxCell>
        <mxCell id="sqVygoDwtp7AHvXSVEUr-47" style="edgeStyle=orthogonalEdgeStyle;rounded=0;orthogonalLoop=1;jettySize=auto;html=1;" edge="1" parent="WIyWlLk6GJQsqaUBKTNV-1" source="sqVygoDwtp7AHvXSVEUr-37" target="sqVygoDwtp7AHvXSVEUr-44">
          <mxGeometry relative="1" as="geometry">
            <Array as="points">
              <mxPoint x="190" y="760" />
              <mxPoint x="190" y="760" />
            </Array>
          </mxGeometry>
        </mxCell>
        <mxCell id="sqVygoDwtp7AHvXSVEUr-37" value="Manzana" style="rounded=0;whiteSpace=wrap;html=1;fontStyle=1" vertex="1" parent="WIyWlLk6GJQsqaUBKTNV-1">
          <mxGeometry x="135" y="654.8" width="105" height="60" as="geometry" />
        </mxCell>
        <mxCell id="sqVygoDwtp7AHvXSVEUr-92" style="edgeStyle=orthogonalEdgeStyle;rounded=0;orthogonalLoop=1;jettySize=auto;html=1;entryX=1;entryY=0.5;entryDx=0;entryDy=0;" edge="1" parent="WIyWlLk6GJQsqaUBKTNV-1" source="sqVygoDwtp7AHvXSVEUr-38" target="sqVygoDwtp7AHvXSVEUr-69">
          <mxGeometry relative="1" as="geometry">
            <Array as="points">
              <mxPoint x="292" y="1420" />
            </Array>
          </mxGeometry>
        </mxCell>
        <mxCell id="sqVygoDwtp7AHvXSVEUr-38" value="ClÃ¡sico&amp;nbsp;" style="rounded=0;whiteSpace=wrap;html=1;fontStyle=1" vertex="1" parent="WIyWlLk6GJQsqaUBKTNV-1">
          <mxGeometry x="240" y="654.8" width="105" height="60" as="geometry" />
        </mxCell>
        <mxCell id="sqVygoDwtp7AHvXSVEUr-100" style="edgeStyle=orthogonalEdgeStyle;rounded=0;orthogonalLoop=1;jettySize=auto;html=1;" edge="1" parent="WIyWlLk6GJQsqaUBKTNV-1" source="sqVygoDwtp7AHvXSVEUr-39">
          <mxGeometry relative="1" as="geometry">
            <mxPoint x="580" y="685" as="targetPoint" />
          </mxGeometry>
        </mxCell>
        <mxCell id="sqVygoDwtp7AHvXSVEUr-39" value="Otro" style="rounded=0;whiteSpace=wrap;html=1;fontStyle=1" vertex="1" parent="WIyWlLk6GJQsqaUBKTNV-1">
          <mxGeometry x="345" y="654.8" width="105" height="60" as="geometry" />
        </mxCell>
        <mxCell id="sqVygoDwtp7AHvXSVEUr-62" value="" style="edgeStyle=orthogonalEdgeStyle;rounded=0;orthogonalLoop=1;jettySize=auto;html=1;" edge="1" parent="WIyWlLk6GJQsqaUBKTNV-1" source="sqVygoDwtp7AHvXSVEUr-44" target="sqVygoDwtp7AHvXSVEUr-48">
          <mxGeometry relative="1" as="geometry" />
        </mxCell>
        <mxCell id="sqVygoDwtp7AHvXSVEUr-74" value="" style="edgeStyle=orthogonalEdgeStyle;rounded=0;orthogonalLoop=1;jettySize=auto;html=1;" edge="1" parent="WIyWlLk6GJQsqaUBKTNV-1" source="sqVygoDwtp7AHvXSVEUr-44" target="sqVygoDwtp7AHvXSVEUr-73">
          <mxGeometry relative="1" as="geometry" />
        </mxCell>
        <mxCell id="sqVygoDwtp7AHvXSVEUr-44" value="Tengo&amp;nbsp;&lt;br&gt;manzana&lt;br&gt;?" style="rhombus;whiteSpace=wrap;html=1;fillColor=#1ba1e2;fontColor=#ffffff;strokeColor=#006EAF;" vertex="1" parent="WIyWlLk6GJQsqaUBKTNV-1">
          <mxGeometry x="150" y="790" width="80" height="80" as="geometry" />
        </mxCell>
        <mxCell id="sqVygoDwtp7AHvXSVEUr-64" value="" style="edgeStyle=orthogonalEdgeStyle;rounded=0;orthogonalLoop=1;jettySize=auto;html=1;" edge="1" parent="WIyWlLk6GJQsqaUBKTNV-1" source="sqVygoDwtp7AHvXSVEUr-48" target="sqVygoDwtp7AHvXSVEUr-50">
          <mxGeometry relative="1" as="geometry" />
        </mxCell>
        <mxCell id="sqVygoDwtp7AHvXSVEUr-48" value="Buscar un plato" style="rounded=1;whiteSpace=wrap;html=1;fillColor=#1ba1e2;strokeColor=#006EAF;fontColor=#ffffff;" vertex="1" parent="WIyWlLk6GJQsqaUBKTNV-1">
          <mxGeometry x="145" y="950" width="90" height="60" as="geometry" />
        </mxCell>
        <mxCell id="sqVygoDwtp7AHvXSVEUr-66" style="edgeStyle=orthogonalEdgeStyle;rounded=0;orthogonalLoop=1;jettySize=auto;html=1;entryX=1;entryY=0.5;entryDx=0;entryDy=0;" edge="1" parent="WIyWlLk6GJQsqaUBKTNV-1" source="sqVygoDwtp7AHvXSVEUr-50" target="WJT5H3Xv6onpYGz3A-zf-39">
          <mxGeometry relative="1" as="geometry">
            <Array as="points">
              <mxPoint x="190" y="1199" />
            </Array>
          </mxGeometry>
        </mxCell>
        <mxCell id="sqVygoDwtp7AHvXSVEUr-50" value="Rallar manzana" style="whiteSpace=wrap;html=1;rounded=1;fillColor=#1ba1e2;strokeColor=#006EAF;fontColor=#ffffff;" vertex="1" parent="WIyWlLk6GJQsqaUBKTNV-1">
          <mxGeometry x="145" y="1050" width="90" height="60" as="geometry" />
        </mxCell>
        <mxCell id="sqVygoDwtp7AHvXSVEUr-89" value="" style="edgeStyle=orthogonalEdgeStyle;rounded=0;orthogonalLoop=1;jettySize=auto;html=1;" edge="1" parent="WIyWlLk6GJQsqaUBKTNV-1" source="sqVygoDwtp7AHvXSVEUr-69" target="sqVygoDwtp7AHvXSVEUr-79">
          <mxGeometry relative="1" as="geometry" />
        </mxCell>
        <mxCell id="sqVygoDwtp7AHvXSVEUr-69" value="Colocar leche&amp;nbsp;" style="rounded=1;whiteSpace=wrap;html=1;" vertex="1" parent="WIyWlLk6GJQsqaUBKTNV-1">
          <mxGeometry x="20" y="1390" width="120" height="60" as="geometry" />
        </mxCell>
        <mxCell id="sqVygoDwtp7AHvXSVEUr-71" value="Si" style="text;html=1;align=center;verticalAlign=middle;resizable=0;points=[];autosize=1;strokeColor=none;fillColor=none;" vertex="1" parent="WIyWlLk6GJQsqaUBKTNV-1">
          <mxGeometry x="-20" y="895" width="30" height="30" as="geometry" />
        </mxCell>
        <mxCell id="sqVygoDwtp7AHvXSVEUr-72" value="Si" style="text;html=1;align=center;verticalAlign=middle;resizable=0;points=[];autosize=1;strokeColor=none;fillColor=none;" vertex="1" parent="WIyWlLk6GJQsqaUBKTNV-1">
          <mxGeometry x="160" y="895" width="30" height="30" as="geometry" />
        </mxCell>
        <mxCell id="sqVygoDwtp7AHvXSVEUr-75" style="edgeStyle=orthogonalEdgeStyle;rounded=0;orthogonalLoop=1;jettySize=auto;html=1;entryX=0;entryY=0.5;entryDx=0;entryDy=0;" edge="1" parent="WIyWlLk6GJQsqaUBKTNV-1" source="sqVygoDwtp7AHvXSVEUr-73" target="sqVygoDwtp7AHvXSVEUr-48">
          <mxGeometry relative="1" as="geometry">
            <Array as="points">
              <mxPoint x="80" y="980" />
            </Array>
          </mxGeometry>
        </mxCell>
        <mxCell id="sqVygoDwtp7AHvXSVEUr-73" value="Ir a comprar" style="rounded=1;whiteSpace=wrap;html=1;fillColor=#1ba1e2;strokeColor=#006EAF;fontColor=#ffffff;" vertex="1" parent="WIyWlLk6GJQsqaUBKTNV-1">
          <mxGeometry x="50" y="800" width="60" height="60" as="geometry" />
        </mxCell>
        <mxCell id="sqVygoDwtp7AHvXSVEUr-76" value="No" style="text;html=1;align=center;verticalAlign=middle;resizable=0;points=[];autosize=1;strokeColor=none;fillColor=none;" vertex="1" parent="WIyWlLk6GJQsqaUBKTNV-1">
          <mxGeometry x="110" y="800" width="40" height="30" as="geometry" />
        </mxCell>
        <mxCell id="sqVygoDwtp7AHvXSVEUr-86" value="" style="edgeStyle=orthogonalEdgeStyle;rounded=0;orthogonalLoop=1;jettySize=auto;html=1;" edge="1" parent="WIyWlLk6GJQsqaUBKTNV-1" source="sqVygoDwtp7AHvXSVEUr-79" target="sqVygoDwtp7AHvXSVEUr-81">
          <mxGeometry relative="1" as="geometry" />
        </mxCell>
        <mxCell id="sqVygoDwtp7AHvXSVEUr-88" style="edgeStyle=orthogonalEdgeStyle;rounded=0;orthogonalLoop=1;jettySize=auto;html=1;entryX=0;entryY=0.5;entryDx=0;entryDy=0;" edge="1" parent="WIyWlLk6GJQsqaUBKTNV-1" source="sqVygoDwtp7AHvXSVEUr-79" target="sqVygoDwtp7AHvXSVEUr-69">
          <mxGeometry relative="1" as="geometry">
            <Array as="points">
              <mxPoint x="-70" y="1550" />
              <mxPoint x="-70" y="1420" />
            </Array>
          </mxGeometry>
        </mxCell>
        <mxCell id="sqVygoDwtp7AHvXSVEUr-79" value="Tengo el &lt;br&gt;punto justo&lt;br&gt;?" style="rhombus;whiteSpace=wrap;html=1;" vertex="1" parent="WIyWlLk6GJQsqaUBKTNV-1">
          <mxGeometry x="25" y="1490" width="108" height="120" as="geometry" />
        </mxCell>
        <mxCell id="sqVygoDwtp7AHvXSVEUr-97" value="" style="edgeStyle=orthogonalEdgeStyle;rounded=0;orthogonalLoop=1;jettySize=auto;html=1;" edge="1" parent="WIyWlLk6GJQsqaUBKTNV-1" source="sqVygoDwtp7AHvXSVEUr-81" target="WJT5H3Xv6onpYGz3A-zf-45">
          <mxGeometry relative="1" as="geometry" />
        </mxCell>
        <mxCell id="sqVygoDwtp7AHvXSVEUr-81" value="Mezclar todo" style="rounded=1;whiteSpace=wrap;html=1;" vertex="1" parent="WIyWlLk6GJQsqaUBKTNV-1">
          <mxGeometry x="20" y="1660" width="120" height="60" as="geometry" />
        </mxCell>
        <mxCell id="sqVygoDwtp7AHvXSVEUr-83" value="No" style="text;html=1;align=center;verticalAlign=middle;resizable=0;points=[];autosize=1;strokeColor=none;fillColor=none;" vertex="1" parent="WIyWlLk6GJQsqaUBKTNV-1">
          <mxGeometry x="-35" y="1550" width="40" height="30" as="geometry" />
        </mxCell>
        <mxCell id="sqVygoDwtp7AHvXSVEUr-87" value="Si" style="text;html=1;align=center;verticalAlign=middle;resizable=0;points=[];autosize=1;strokeColor=none;fillColor=none;" vertex="1" parent="WIyWlLk6GJQsqaUBKTNV-1">
          <mxGeometry x="50" y="1620" width="30" height="30" as="geometry" />
        </mxCell>
        <mxCell id="sqVygoDwtp7AHvXSVEUr-99" value="" style="verticalLabelPosition=bottom;verticalAlign=top;html=1;shape=mxgraph.basic.flash" vertex="1" parent="WIyWlLk6GJQsqaUBKTNV-1">
          <mxGeometry x="581" y="634.8" width="60" height="100" as="geometry" />
        </mxCell>
      </root>
    </mxGraphModel>
  </diagram>
</mxfile>
